name C:/MyDriveSym/Projects/mobilecap/Data\Session20210825_0002\mocap\ForceDataProcessed\walkingTS1_forces.mot
datacolumns 19
datarows 22
range 1.12450000 1.13500000
endheader 
time	R_ground_force_vx	R_ground_force_vy	R_ground_force_vz	R_ground_force_px	R_ground_force_py	R_ground_force_pz	R_ground_torque_x	R_ground_torque_y	R_ground_torque_z	L_ground_force_vx	L_ground_force_vy	L_ground_force_vz	L_ground_force_px	L_ground_force_py	L_ground_force_pz	L_ground_torque_x	L_ground_torque_y	L_ground_torque_z	
          1.12450000	          0.00000000	          0.00000000	          0.00000000	          1.28874400	          0.00000000	         -0.14184900	          0.00000000	          0.00000000	          0.00000000	         54.77935400	        607.31551500	         35.12736400	          0.94366800	          0.00600000	         -0.31339000	          0.00000000	          1.77997400	          0.00000000	
          1.12500000	          0.00000000	          0.00000000	          0.00000000	          1.28993400	          0.00000000	         -0.14186900	          0.00000000	          0.00000000	          0.00000000	         55.00326600	        607.23734100	         35.16788600	          0.94374100	          0.00600000	         -0.31339000	          0.00000000	          1.77073700	          0.00000000	
          1.12550000	          0.00000000	          0.00000000	          0.00000000	          1.29112400	          0.00000000	         -0.14189000	          0.00000000	          0.00000000	          0.00000000	         55.22709900	        607.15614800	         35.20779800	          0.94381300	          0.00600000	         -0.31339000	          0.00000000	          1.76151300	          0.00000000	
          1.12600000	          0.00000000	          0.00000000	          0.00000000	          1.29231500	          0.00000000	         -0.14191100	          0.00000000	          0.00000000	          0.00000000	         55.45084600	        607.07190900	         35.24709100	          0.94388600	          0.00600000	         -0.31339000	          0.00000000	          1.75230200	          0.00000000	
          1.12650000	          0.00000000	          0.00000000	          0.00000000	          1.29350500	          0.00000000	         -0.14193100	          0.00000000	          0.00000000	          0.00000000	         55.67449900	        606.98459500	         35.28575800	          0.94395900	          0.00600000	         -0.31338900	          0.00000000	          1.74310700	          0.00000000	
          1.12700000	          0.00000000	          0.00000000	          0.00000000	          1.29469500	          0.00000000	         -0.14195200	          0.00000000	          0.00000000	          0.00000000	         55.89805100	        606.89417500	         35.32379200	          0.94403100	          0.00600000	         -0.31338900	          0.00000000	          1.73392600	          0.00000000	
          1.12750000	          0.00000000	          0.00000000	          0.00000000	          1.29588600	          0.00000000	         -0.14197300	          0.00000000	          0.00000000	          0.00000000	         56.12149600	        606.80062100	         35.36118500	          0.94410400	          0.00600000	         -0.31338800	          0.00000000	          1.72476100	          0.00000000	
          1.12800000	          0.00000000	          0.00000000	          0.00000000	          1.29707600	          0.00000000	         -0.14199300	          0.00000000	          0.00000000	          0.00000000	         56.34482700	        606.70390300	         35.39793100	          0.94417600	          0.00600000	         -0.31338800	          0.00000000	          1.71561400	          0.00000000	
          1.12850000	          0.00000000	          0.00000000	          0.00000000	          1.29826600	          0.00000000	         -0.14201400	          0.00000000	          0.00000000	          0.00000000	         56.56803600	        606.60399200	         35.43402200	          0.94424900	          0.00600000	         -0.31338700	          0.00000000	          1.70648300	          0.00000000	
          1.12900000	          0.00000000	          0.00000000	          0.00000000	          1.29945700	          0.00000000	         -0.14203500	          0.00000000	          0.00000000	          0.00000000	         56.79111600	        606.50085900	         35.46945000	          0.94432100	          0.00600000	         -0.31338700	          0.00000000	          1.69737100	          0.00000000	
          1.12950000	          0.00000000	          0.00000000	          0.00000000	          1.30064700	          0.00000000	         -0.14205500	          0.00000000	          0.00000000	          0.00000000	         57.01405900	        606.39447200	         35.50421000	          0.94439300	          0.00600000	         -0.31338600	          0.00000000	          1.68827800	          0.00000000	
          1.13000000	          0.00000000	          0.00000000	          0.00000000	          1.30183700	          0.00000000	         -0.14207600	          0.00000000	          0.00000000	          0.00000000	         57.23685900	        606.28480400	         35.53829300	          0.94446600	          0.00600000	         -0.31338500	          0.00000000	          1.67920400	          0.00000000	
          1.13050000	          0.00000000	          0.00000000	          0.00000000	          1.30302800	          0.00000000	         -0.14209700	          0.00000000	          0.00000000	          0.00000000	         57.45950700	        606.17182300	         35.57169300	          0.94453800	          0.00600000	         -0.31338400	          0.00000000	          1.67015000	          0.00000000	
          1.13100000	          0.00000000	          0.00000000	          0.00000000	          1.30421800	          0.00000000	         -0.14211700	          0.00000000	          0.00000000	          0.00000000	         57.68199700	        606.05550000	         35.60440300	          0.94461000	          0.00600000	         -0.31338300	          0.00000000	          1.66111800	          0.00000000	
          1.13150000	          0.00000000	          0.00000000	          0.00000000	          1.30540800	          0.00000000	         -0.14213800	          0.00000000	          0.00000000	          0.00000000	         57.90432100	        605.93580500	         35.63641600	          0.94468200	          0.00600000	         -0.31338200	          0.00000000	          1.65210700	          0.00000000	
          1.13200000	          0.00000000	          0.00000000	          0.00000000	          1.30659900	          0.00000000	         -0.14215900	          0.00000000	          0.00000000	          0.00000000	         58.12647000	        605.81270800	         35.66772600	          0.94475400	          0.00600000	         -0.31338100	          0.00000000	          1.64311900	          0.00000000	
          1.13250000	          0.00000000	          0.00000000	          0.00000000	          1.30778900	          0.00000000	         -0.14217900	          0.00000000	          0.00000000	          0.00000000	         58.34843800	        605.68617700	         35.69832400	          0.94482600	          0.00600000	         -0.31337900	          0.00000000	          1.63415300	          0.00000000	
          1.13300000	          0.00000000	          0.00000000	          0.00000000	          1.30897900	          0.00000000	         -0.14220000	          0.00000000	          0.00000000	          0.00000000	         58.57021600	        605.55618400	         35.72820600	          0.94489800	          0.00600000	         -0.31337800	          0.00000000	          1.62521100	          0.00000000	
          1.13350000	          0.00000000	          0.00000000	          0.00000000	          1.31017000	          0.00000000	         -0.14222100	          0.00000000	          0.00000000	          0.00000000	         58.79179600	        605.42269600	         35.75736300	          0.94497000	          0.00600000	         -0.31337600	          0.00000000	          1.61629300	          0.00000000	
          1.13400000	          0.00000000	          0.00000000	          0.00000000	          1.31136000	          0.00000000	         -0.14224100	          0.00000000	          0.00000000	          0.00000000	         59.01317100	        605.28568500	         35.78579100	          0.94504200	          0.00600000	         -0.31337500	          0.00000000	          1.60740100	          0.00000000	
          1.13450000	          0.00000000	          0.00000000	          0.00000000	          1.31255000	          0.00000000	         -0.14226200	          0.00000000	          0.00000000	          0.00000000	         59.23433200	        605.14511900	         35.81348100	          0.94511400	          0.00600000	         -0.31337300	          0.00000000	          1.59853400	          0.00000000	
          1.13500000	          0.00000000	          0.00000000	          0.00000000	          1.31374000	          0.00000000	         -0.14228300	          0.00000000	          0.00000000	          0.00000000	         59.45527100	        605.00096800	         35.84042800	          0.94518500	          0.00600000	         -0.31337100	          0.00000000	          1.58969300	          0.00000000	
